<?xml version="1.0" encoding="UTF-8" standalone="no"?>
<!-- Created with Inkscape (http://www.inkscape.org/) -->

<svg
   width="64"
   height="64"
   id="svg2"
   version="1.1"
   xml:space="preserve"
   xmlns:xlink="http://www.w3.org/1999/xlink"
   xmlns="http://www.w3.org/2000/svg"
   xmlns:svg="http://www.w3.org/2000/svg"
   xmlns:rdf="http://www.w3.org/1999/02/22-rdf-syntax-ns#"
   xmlns:cc="http://creativecommons.org/ns#"
   xmlns:dc="http://purl.org/dc/elements/1.1/"><defs
     id="defs4"><linearGradient
       id="linearGradient47"><stop
         style="stop-color:#65571b;stop-opacity:1;"
         offset="0"
         id="stop47" /><stop
         style="stop-color:#503c1a;stop-opacity:1;"
         offset="1"
         id="stop48" /></linearGradient><linearGradient
       id="linearGradient40"><stop
         style="stop-color:#6c6126;stop-opacity:1;"
         offset="0"
         id="stop40" /><stop
         style="stop-color:#7a6721;stop-opacity:0;"
         offset="1"
         id="stop41" /></linearGradient><linearGradient
       id="linearGradient22"><stop
         style="stop-color:#550000;stop-opacity:1;"
         offset="0"
         id="stop22" /><stop
         style="stop-color:#340000;stop-opacity:1;"
         offset="1"
         id="stop23" /></linearGradient><linearGradient
       id="linearGradient21"><stop
         style="stop-color:#9ef9ff;stop-opacity:0.16076757;"
         offset="0"
         id="stop20" /><stop
         style="stop-color:#9ef9ff;stop-opacity:0.27134448;"
         offset="1"
         id="stop21" /></linearGradient><linearGradient
       id="linearGradient11"><stop
         style="stop-color:#b08d49;stop-opacity:1;"
         offset="0"
         id="stop11" /><stop
         style="stop-color:#856338;stop-opacity:0.99270558;"
         offset="1"
         id="stop12" /></linearGradient><linearGradient
       id="linearGradient8"><stop
         style="stop-color:#9ef9ff;stop-opacity:0.16076757;"
         offset="0"
         id="stop8" /><stop
         style="stop-color:#9ef9ff;stop-opacity:0.27718833;"
         offset="1"
         id="stop9" /></linearGradient><radialGradient
       xlink:href="#linearGradient8"
       id="radialGradient9"
       cx="17.48827"
       cy="26.579639"
       fx="17.48827"
       fy="26.579639"
       r="9.5333138"
       gradientTransform="matrix(1,0,0,0.87134504,1.6428572,3.4196026)"
       gradientUnits="userSpaceOnUse" /><radialGradient
       xlink:href="#linearGradient21"
       id="radialGradient11"
       cx="44.478107"
       cy="26.579639"
       fx="44.478107"
       fy="26.579639"
       r="9.5333138"
       gradientTransform="matrix(1,0,0,0.87134504,1.6428572,3.4196026)"
       gradientUnits="userSpaceOnUse" /><radialGradient
       xlink:href="#linearGradient11"
       id="radialGradient12"
       cx="31"
       cy="35.000004"
       fx="31"
       fy="35.000004"
       r="26"
       gradientTransform="matrix(1,0,0,0.80808292,1.6428572,9.727254)"
       gradientUnits="userSpaceOnUse" /><radialGradient
       xlink:href="#linearGradient22"
       id="radialGradient23"
       cx="32.921313"
       cy="47.156992"
       fx="32.921313"
       fy="47.156992"
       r="20.239231"
       gradientTransform="matrix(1,0,0,0.33612939,0,33.306141)"
       gradientUnits="userSpaceOnUse" /><linearGradient
       xlink:href="#linearGradient40"
       id="linearGradient41"
       x1="0.53571427"
       y1="40.714287"
       x2="7.3214288"
       y2="31.785715"
       gradientUnits="userSpaceOnUse" /><linearGradient
       xlink:href="#linearGradient40"
       id="linearGradient42"
       gradientUnits="userSpaceOnUse"
       x1="0.53571427"
       y1="40.714287"
       x2="7.3214288"
       y2="31.785715" /><radialGradient
       xlink:href="#linearGradient47"
       id="radialGradient48"
       cx="17.236616"
       cy="4.2713337"
       fx="17.236616"
       fy="4.2713337"
       r="8.6566072"
       gradientTransform="matrix(0.97371725,0.14400756,-0.04768408,0.32241924,-0.14200431,3.74428)"
       gradientUnits="userSpaceOnUse" /><radialGradient
       xlink:href="#linearGradient47"
       id="radialGradient49"
       gradientUnits="userSpaceOnUse"
       gradientTransform="matrix(-0.86782569,0.4644804,0.1537997,0.28735621,60.481784,-4.267255)"
       cx="17.236616"
       cy="4.2713337"
       fx="17.236616"
       fy="4.2713337"
       r="8.6566072" /></defs><metadata
     id="metadata7"><rdf:RDF><cc:Work
         rdf:about=""><dc:format>image/svg+xml</dc:format><dc:type
           rdf:resource="http://purl.org/dc/dcmitype/StillImage" /></cc:Work></rdf:RDF></metadata><g
     id="layer1"><path
       style="fill:url(#radialGradient49);fill-opacity:1;stroke:none;stroke-width:1px;stroke-linecap:butt;stroke-linejoin:miter;stroke-opacity:1"
       d="m 44.868995,2.937124 c -1.40802,0.388699 -6.716342,1.095331 -8.818767,12.421613 -2.102423,11.326283 1.242918,1.387024 1.72897,0.747116 1.073287,-1.413031 2.680856,-6.29711 9.458356,-8.860036 3.494139,-1.321316 0.917859,-5.215943 -2.368559,-4.308693 z"
       id="path48" /><path
       style="fill:url(#radialGradient48);stroke:none;stroke-width:1px;stroke-linecap:butt;stroke-linejoin:miter;stroke-opacity:1"
       d="m 16.986701,5.250851 c 1.456554,-0.109806 6.691521,-1.237961 12.496565,8.712232 5.805043,9.950193 -0.701288,1.725362 -1.374937,1.28727 -1.487537,-0.967385 -4.650528,-5.021273 -11.895392,-5.14397 -3.735087,-0.06326 -2.625936,-4.599237 0.773764,-4.855532 z"
       id="path44" /><g
       id="g42"
       transform="matrix(-1,0,0,1,64.468225,2)"><path
         style="fill:#463b13;fill-opacity:1;stroke:none;stroke-width:1px;stroke-linecap:butt;stroke-linejoin:miter;stroke-opacity:1"
         d="m 8.2935758,29.114765 c 0,0 -7.1438254,3.009689 -7.52254707,13.458029 C 7.0594294,41.86073 10.58659,34.138978 10.58659,34.138978 l 1.110606,-4.790972 z"
         id="path41" /><path
         style="fill:url(#linearGradient42);fill-opacity:1;stroke:none;stroke-width:1px;stroke-linecap:butt;stroke-linejoin:miter;stroke-opacity:1"
         d="m 8.2935758,29.114765 c 0,0 -7.1438254,3.009689 -7.52254707,13.458029 C 5.4898446,40.116747 7.9313901,31.188756 10.58659,34.138978 l 1.110606,-4.790972 z"
         id="path42" /></g><g
       id="g41"
       transform="translate(0,2)"><path
         style="fill:#463b13;fill-opacity:1;stroke:none;stroke-width:1px;stroke-linecap:butt;stroke-linejoin:miter;stroke-opacity:1"
         d="m 8.2935758,29.114765 c 0,0 -7.1438254,3.009689 -7.52254707,13.458029 C 7.0594294,41.86073 10.58659,34.138978 10.58659,34.138978 l 1.110606,-4.790972 z"
         id="path39" /><path
         style="fill:url(#linearGradient41);fill-opacity:1;stroke:none;stroke-width:1px;stroke-linecap:butt;stroke-linejoin:miter;stroke-opacity:1"
         d="m 8.2935758,29.114765 c 0,0 -7.1438254,3.009689 -7.52254707,13.458029 C 5.4898446,40.116747 7.9313901,31.188756 10.58659,34.138978 l 1.110606,-4.790972 z"
         id="path40" /></g><ellipse
       style="fill:url(#radialGradient12);fill-rule:evenodd;stroke-width:1"
       id="path1"
       cx="32.64286"
       cy="38.010159"
       rx="26"
       ry="21.010157" /><path
       id="path11"
       style="fill:#463b13;fill-opacity:1;fill-rule:evenodd"
       d="m 32.894811,16.117088 a 6.2840109,2.3676448 0 0 0 -5.839844,1.492188 7.7992396,2.3676448 0 0 0 5.966797,0.84375 7.7992396,2.3676448 0 0 0 5.779297,-0.779297 6.2840109,2.3676448 0 0 0 -5.90625,-1.556641 z" /><path
       id="path12"
       style="fill:#4f4316;fill-opacity:1;fill-rule:evenodd;stroke-width:0.999998"
       d="m 32.912759,19.632317 a 2.8871907,1.7277296 0 0 0 -2.683118,1.088888 3.583363,1.7277296 0 0 0 2.741447,0.615705 3.583363,1.7277296 0 0 0 2.6553,-0.568673 2.8871907,1.7277296 0 0 0 -2.713629,-1.13592 z" /><g
       id="g20"
       transform="translate(0,-38)"><g
         id="g17"
         transform="translate(25.892857,17.5)"><circle
           style="fill:#f9f9f9;fill-rule:evenodd"
           id="path16"
           cx="-4.6428571"
           cy="50.17857"
           r="5.5357141" /><ellipse
           style="fill:#1a1a1a;fill-rule:evenodd"
           id="path17"
           cx="-2.3214285"
           cy="50.714287"
           rx="1.0714285"
           ry="1.7336079" /></g><g
         id="g18"
         transform="matrix(-1,0,0,1,40.07143,17.5)"><circle
           style="fill:#f9f9f9;fill-rule:evenodd"
           id="circle17"
           cx="-4.6428571"
           cy="50.17857"
           r="5.5357141" /><ellipse
           style="fill:#1a1a1a;fill-rule:evenodd"
           id="ellipse17"
           cx="-2.3214285"
           cy="50.714287"
           rx="1.0714285"
           ry="1.7336079" /></g></g><g
       id="g19"
       transform="translate(0,2)"><ellipse
         style="fill:url(#radialGradient9);fill-rule:evenodd;stroke-width:1"
         id="ellipse7"
         cx="19.131126"
         cy="26.579639"
         rx="9.5333138"
         ry="8.3068056" /><path
         id="path3"
         style="fill:#732e00;fill-opacity:1;fill-rule:evenodd;stroke-width:1"
         d="m 19.761999,17.804688 a 10.796005,9.4070454 0 0 0 -10.794923,9.40625 10.796005,9.4070454 0 0 0 10.794923,9.40625 10.796005,9.4070454 0 0 0 10.796875,-9.40625 10.796005,9.4070454 0 0 0 -10.796875,-9.40625 z m -0.63086,0.6875 a 9.280776,8.0867586 0 0 1 9.28125,8.08789 9.280776,8.0867586 0 0 1 -9.28125,8.085938 9.280776,8.0867586 0 0 1 -9.2812504,-8.085938 9.280776,8.0867586 0 0 1 9.2812504,-8.08789 z" /><ellipse
         style="fill:url(#radialGradient11);fill-rule:evenodd;stroke-width:0.999997"
         id="ellipse6"
         cx="46.120968"
         cy="26.579639"
         rx="9.5333138"
         ry="8.3068056" /><path
         id="ellipse3"
         style="fill:#732e00;fill-opacity:1;fill-rule:evenodd;stroke-width:1"
         d="m 45.761999,17.804688 a 10.796005,9.4070454 0 0 0 -10.794922,9.40625 10.796005,9.4070454 0 0 0 10.794922,9.40625 10.796005,9.4070454 0 0 0 10.796875,-9.40625 10.796005,9.4070454 0 0 0 -10.796875,-9.40625 z m 0.359375,0.6875 a 9.280776,8.0867586 0 0 1 9.28125,8.08789 9.280776,8.0867586 0 0 1 -9.28125,8.085938 9.280776,8.0867586 0 0 1 -9.28125,-8.085938 9.280776,8.0867586 0 0 1 9.28125,-8.08789 z" /><path
         style="fill:#311400;fill-opacity:1;stroke:none;stroke-width:1px;stroke-linecap:butt;stroke-linejoin:miter;stroke-opacity:1"
         d="m 35.92491,29.357563 -0.282052,0.947013 c 0,0 -3.193791,-1.139394 -5.84544,0.375834 l -0.18596,-1.038741 c 0,0 2.115006,-3.093597 6.313452,-0.284106 z"
         id="path8" /><path
         style="fill:#542100;fill-opacity:1;stroke:none;stroke-width:1px;stroke-linecap:butt;stroke-linejoin:miter;stroke-opacity:1"
         d="m 28.75914,23.044105 c 0,0 3.567102,-1.073287 7.986519,-0.06313 -1.515229,2.904189 -0.820749,6.376588 -0.820749,6.376588 0,0 -3.661803,-1.231122 -6.313452,0.284106 C 30.526907,26.200837 28.75914,23.04411 28.75914,23.04411 Z"
         id="path7" /><path
         id="path14"
         style="fill:#ffffff;fill-opacity:0.500142;fill-rule:evenodd;stroke-width:0.999998"
         d="m 16.719117,19.357987 c -2.503893,0.575846 -5.982358,1.985471 -5.268031,3.577322 0.662177,1.475637 3.774641,0.270997 5.996324,-0.239834 2.251957,-0.517875 5.60555,-0.82002 5.547641,-2.442912 -0.06203,-1.738409 -3.789613,-1.466416 -6.275934,-0.894576 z" /><path
         id="path15"
         style="fill:#ffffff;fill-opacity:0.500142;fill-rule:evenodd;stroke-width:0.999998"
         d="m 48.525866,19.357987 c 2.503893,0.575846 5.982358,1.985471 5.268031,3.577322 -0.662177,1.475637 -3.774641,0.270997 -5.996324,-0.239834 -2.251957,-0.517875 -5.60555,-0.82002 -5.547641,-2.442912 0.06203,-1.738409 3.789613,-1.466416 6.275934,-0.894576 z" /></g><g
       id="g51"
       transform="matrix(1,0,0,1.1075388,0,-6.5545987)"
       style="stroke-width:0.950212"><path
         id="path21"
         style="fill:url(#radialGradient23);fill-rule:evenodd;stroke-width:0.950212"
         d="m 32.957247,55.959992 c -8.74395,-2.06e-4 -21.356231,-4.561246 -20.201121,-11.16597 1.070779,-6.122541 8.919931,1.20672 20.071137,1.206373 9.64985,8.6e-5 19.217561,-7.254387 20.263291,-1.100634 1.120163,6.591772 -11.450688,11.060568 -20.133307,11.060231 z" /><path
         id="path24"
         style="fill:#aa0000;fill-rule:evenodd;stroke-width:0.950212"
         d="m 32.5,50.572266 a 12.321428,6.875 0 0 0 -10.636719,3.404296 c 3.576305,1.270187 7.636948,1.984294 11.09375,1.984376 3.237052,1.25e-4 7.014892,-0.621521 10.421875,-1.742188 A 12.321428,6.875 0 0 0 32.5,50.572266 Z" /><path
         id="path25"
         style="fill:#e9ddaf;fill-rule:evenodd;stroke-width:0.950212"
         d="m 16.339844,47.666016 a 4.1964288,2.9464285 0 0 0 -2.808594,0.757812 c 2.8657,4.588294 12.395694,7.536944 19.425781,7.53711 7.009642,2.72e-4 16.554622,-2.913045 19.382813,-7.503907 a 2.6785715,2.4107144 0 0 0 -1.982422,-0.791015 2.6785715,2.4107144 0 0 0 -2.679688,2.410156 2.6785715,2.4107144 0 0 0 0.09961,0.65039 3.8392856,2.4107144 0 0 0 -0.544922,-0.02539 3.8392856,2.4107144 0 0 0 -3.710938,1.791016 4.4642859,3.75 0 0 0 -2.628906,-0.71875 4.4642859,3.75 0 0 0 -4.253906,2.615234 4.2857141,5.7142859 0 0 0 -3.066406,-1.722656 4.2857141,5.7142859 0 0 0 -2.66211,1.236328 4.0178571,4.4642859 0 0 0 -3.320312,-1.951172 4.0178571,4.4642859 0 0 0 -2.105469,0.662109 4.375,3.9285715 0 0 0 -3.966797,-2.267578 4.375,3.9285715 0 0 0 -0.988281,0.101563 4.1964288,2.9464285 0 0 0 -4.189453,-2.78125 z" /><path
         id="path33"
         style="fill:#e9ddaf;fill-opacity:1;fill-rule:evenodd;stroke-width:0.950212"
         d="m 15.144531,42.359375 c -0.219967,0.01214 -0.426508,0.0437 -0.61914,0.09375 a 4.1964288,3.75 0 0 0 4.134765,3.119141 4.1964288,3.75 0 0 0 2.21875,-0.56836 3.4821429,4.4642859 0 0 0 3.138672,2.53125 3.4821429,4.4642859 0 0 0 2.421875,-1.255859 A 4.1071429,4.6428571 0 0 0 30,48.607422 a 4.1071429,4.6428571 0 0 0 3.105469,-1.603516 4.4642859,4.2857141 0 0 0 3.322265,1.423828 4.4642859,4.2857141 0 0 0 4.197266,-2.824218 3.5714285,3.9285715 0 0 0 2.232422,0.861328 3.5714285,3.9285715 0 0 0 3.02539,-1.841797 4.375,4.8214288 0 0 0 1.34961,0.234375 4.375,4.8214288 0 0 0 3.759766,-2.355469 C 47.461832,41.802012 40.16893,46.000065 32.828125,46 24.774974,46.000251 18.444035,42.177288 15.144531,42.359375 Z" /></g></g></svg>
